<svg width="52" height="48" viewBox="0 0 52 48" fill="none" xmlns="http://www.w3.org/2000/svg">
<path d="M0 10C0 4.47715 4.47715 0 10 0H42C47.5228 0 52 4.47715 52 10V38C52 43.5228 47.5228 48 42 48H10C4.47715 48 0 43.5228 0 38V10Z" fill="#99A5FF"/>
<path d="M42.7392 30.1573H9.26086V12.7006C9.26086 11.5887 10.1652 10.6844 11.277 10.6844H40.723C41.8345 10.6844 42.7392 11.5887 42.7392 12.7006V30.1573ZM10.0048 29.4133H41.9952V12.7006C41.9952 11.999 41.4246 11.4284 40.723 11.4284H11.277C10.5754 11.4284 10.0048 11.999 10.0048 12.7006V29.4133Z" fill="#331B3B"/>
<path d="M40.723 34.7788H11.277C10.1652 34.7788 9.26086 33.8741 9.26086 32.7626V29.4133H42.7392V32.7626C42.7392 33.8741 41.8345 34.7788 40.723 34.7788ZM10.0048 30.1573V32.7626C10.0048 33.4642 10.5754 34.0348 11.277 34.0348H40.723C41.4246 34.0348 41.9952 33.4642 41.9952 32.7626V30.1573H10.0048V30.1573Z" fill="#331B3B"/>
<path d="M31.1426 39.3775H20.8573C20.6966 39.3775 20.5542 39.2745 20.5039 39.1216C20.4537 38.9687 20.5077 38.8013 20.6371 38.7061C22.0499 37.6687 22.9929 36.0837 23.2242 34.3577C23.2488 34.1732 23.4065 34.0352 23.5929 34.0352H28.4063C28.5927 34.0352 28.7504 34.1728 28.7749 34.3577C29.0063 36.084 29.9497 37.6687 31.3624 38.7061C31.4923 38.8013 31.5458 38.9687 31.4956 39.1216C31.4454 39.2745 31.3037 39.3775 31.1426 39.3775ZM21.8661 38.6336H30.1342C29.0766 37.592 28.3546 36.2391 28.089 34.7787H23.9109C23.6457 36.2391 22.9237 37.592 21.8661 38.6336Z" fill="#331B3B"/>
<path d="M31.9718 41.316H20.0282C19.2887 41.316 18.6873 40.7145 18.6873 39.975C18.6873 39.2355 19.2887 38.634 20.0282 38.634H31.9718C32.7113 38.634 33.3128 39.2355 33.3128 39.975C33.3128 40.7145 32.7113 41.316 31.9718 41.316ZM20.0282 39.3776C19.699 39.3776 19.4312 39.6455 19.4312 39.9747C19.4312 40.3039 19.699 40.5717 20.0282 40.5717H31.9718C32.3014 40.5717 32.5689 40.3039 32.5689 39.9747C32.5689 39.6455 32.301 39.3776 31.9718 39.3776H20.0282Z" fill="#331B3B"/>
<path d="M26.6327 32.4681H25.3672C25.1619 32.4681 24.9952 32.3018 24.9952 32.0961C24.9952 31.8904 25.1619 31.7241 25.3672 31.7241H26.6327C26.8384 31.7241 27.0047 31.8904 27.0047 32.0961C27.0047 32.3018 26.8384 32.4681 26.6327 32.4681Z" fill="#331B3B"/>
<path d="M22.7582 24.0393C21.4593 24.0393 21.0851 22.8832 20.7841 21.9544C20.4761 21.0032 20.2529 20.4203 19.5703 20.4203C19.365 20.4203 19.1984 20.2537 19.1984 20.0484C19.1984 19.843 19.365 19.6764 19.5703 19.6764C20.2529 19.6764 20.4765 19.0935 20.7845 18.1423C21.0854 17.2131 21.4596 16.0574 22.7586 16.0574C22.9639 16.0574 23.1306 16.224 23.1306 16.4294C23.1306 16.6347 22.9639 16.8013 22.7586 16.8013C22.0373 16.8013 21.8074 17.398 21.4924 18.3715C21.3023 18.9588 21.0821 19.6381 20.6145 20.0484C21.0821 20.4587 21.3023 21.1379 21.4924 21.7252C21.8074 22.6987 22.0373 23.2954 22.7586 23.2954C22.9639 23.2954 23.1306 23.462 23.1306 23.6674C23.1306 23.8727 22.9636 24.0393 22.7582 24.0393Z" fill="#331B3B"/>
<path d="M29.2419 24.0393C29.0361 24.0393 28.8699 23.8727 28.8699 23.6674C28.8699 23.462 29.0361 23.2954 29.2419 23.2954C29.9628 23.2954 30.193 22.6987 30.5081 21.7249C30.6982 21.1379 30.9184 20.4583 31.386 20.0484C30.918 19.6381 30.6978 18.9588 30.5081 18.3718C30.1926 17.398 29.9628 16.8013 29.2419 16.8013C29.0361 16.8013 28.8699 16.6347 28.8699 16.4294C28.8699 16.224 29.0361 16.0574 29.2419 16.0574C30.5408 16.0574 30.915 17.2135 31.216 18.1423C31.524 19.0935 31.7471 19.6764 32.4297 19.6764C32.6354 19.6764 32.8017 19.843 32.8017 20.0484C32.8017 20.2537 32.6354 20.4203 32.4297 20.4203C31.7471 20.4203 31.5236 21.0032 31.2156 21.9544C30.915 22.8832 30.5408 24.0393 29.2419 24.0393Z" fill="#331B3B"/>
<path d="M24.5377 24.9034C24.4987 24.9034 24.4589 24.8971 24.4194 24.884C24.2249 24.8186 24.1196 24.6077 24.1851 24.4131L27.1907 15.4473C27.2562 15.2527 27.4671 15.1478 27.6616 15.2129C27.8565 15.2784 27.9618 15.4893 27.8963 15.6838L24.8907 24.6497C24.8383 24.8048 24.6932 24.9034 24.5377 24.9034Z" fill="#331B3B"/>
</svg>
