<svg width="75" height="80" viewBox="0 0 75 80" fill="none" xmlns="http://www.w3.org/2000/svg">
<path d="M9.20839 30.9167C8.52913 31.5989 8.10707 32.4952 8.01392 33.4534C7.92077 34.4116 8.16229 35.3725 8.69743 36.1727C9.23257 36.973 10.0283 37.5632 10.9494 37.8432C11.8705 38.1231 12.8601 38.0755 13.7501 37.7083C14.2564 37.4818 14.7212 37.172 15.1251 36.7917C15.4999 36.4077 15.797 35.955 16.0001 35.4583C16.2382 34.9507 16.3525 34.3937 16.3334 33.8333C16.3288 32.7402 15.8948 31.6928 15.1251 30.9167C14.7377 30.5261 14.2769 30.2162 13.7691 30.0046C13.2614 29.7931 12.7168 29.6842 12.1667 29.6842C11.6167 29.6842 11.0721 29.7931 10.5643 30.0046C10.0566 30.2162 9.59573 30.5261 9.20839 30.9167ZM12.1667 8.83333C13.2718 8.83333 14.3316 9.27232 15.113 10.0537C15.8944 10.8351 16.3334 11.8949 16.3334 13C16.3334 14.1051 15.8944 15.1649 15.113 15.9463C14.3316 16.7277 13.2718 17.1667 12.1667 17.1667C11.0617 17.1667 10.0018 17.6057 9.22044 18.3871C8.43904 19.1685 8.00006 20.2283 8.00006 21.3333C8.00006 22.4384 8.43904 23.4982 9.22044 24.2796C10.0018 25.061 11.0617 25.5 12.1667 25.5C14.3606 25.4986 16.5155 24.9198 18.4148 23.8218C20.3141 22.7238 21.891 21.1453 22.987 19.2448C24.083 17.3443 24.6596 15.1889 24.6587 12.995C24.6578 10.8011 24.0796 8.64612 22.982 6.74653C21.8845 4.84694 20.3063 3.26966 18.4061 2.17318C16.5059 1.0767 14.3506 0.499649 12.1567 0.5C9.96283 0.500352 7.8077 1.0781 5.90784 2.17518C4.00798 3.27227 2.43032 4.85005 1.33339 6.75C1.05789 7.22555 0.8792 7.75092 0.807603 8.29583C0.736005 8.84074 0.772918 9.39443 0.916214 9.92501C1.05951 10.4556 1.30636 10.9526 1.64254 11.3874C1.97873 11.8221 2.39761 12.1861 2.87506 12.4583C3.83179 13.0015 4.96455 13.1443 6.02616 12.8555C7.08777 12.5667 7.99206 11.8697 8.54172 10.9167C8.90882 10.2808 9.43742 9.75325 10.074 9.3874C10.7106 9.02156 11.4325 8.83041 12.1667 8.83333ZM62.1667 13H37.1667C36.0617 13 35.0019 13.439 34.2204 14.2204C33.439 15.0018 33.0001 16.0616 33.0001 17.1667C33.0001 18.2717 33.439 19.3315 34.2204 20.1129C35.0019 20.8943 36.0617 21.3333 37.1667 21.3333H62.1667C63.2718 21.3333 64.3316 21.7723 65.113 22.5537C65.8944 23.3351 66.3334 24.3949 66.3334 25.5V66L59.7917 59.9583C59.0233 59.2389 58.011 58.837 56.9584 58.8333H20.5001C19.395 58.8333 18.3352 58.3943 17.5538 57.6129C16.7724 56.8315 16.3334 55.7717 16.3334 54.6667V50.5C16.3334 49.3949 15.8944 48.3351 15.113 47.5537C14.3316 46.7723 13.2718 46.3333 12.1667 46.3333C11.0617 46.3333 10.0018 46.7723 9.22044 47.5537C8.43904 48.3351 8.00006 49.3949 8.00006 50.5V54.6667C8.00006 57.9819 9.31702 61.1613 11.6612 63.5055C14.0054 65.8497 17.1849 67.1667 20.5001 67.1667H55.3334L67.8334 78.5417C68.5593 79.2233 69.5053 79.6224 70.5001 79.6667C71.0715 79.6604 71.6368 79.5474 72.1667 79.3333C72.912 79.008 73.5459 78.4718 73.9901 77.7906C74.4344 77.1095 74.6696 76.3132 74.6667 75.5V25.5C74.6667 22.1848 73.3498 19.0054 71.0056 16.6612C68.6614 14.317 65.4819 13 62.1667 13Z" fill="#6A26B7"/>
</svg>
