<svg width="76" height="90" viewBox="0 0 76 90" fill="none" xmlns="http://www.w3.org/2000/svg">
<path d="M68.4504 0H8.45044V7.5H68.4504V0ZM8.45044 90H68.4504V82.5H8.45044V90ZM68.4504 15H8.45044C4.30669 15 0.950439 18.3563 0.950439 22.5V67.5C0.950439 71.6438 4.30669 75 8.45044 75H68.4504C72.5942 75 75.9504 71.6438 75.9504 67.5V22.5C75.9504 18.3563 72.5942 15 68.4504 15ZM38.4504 25.3125C43.1004 25.3125 46.8879 29.1 46.8879 33.75C46.8879 38.4188 43.1004 42.1875 38.4504 42.1875C33.8004 42.1875 30.0129 38.4188 30.0129 33.75C30.0129 29.1 33.8004 25.3125 38.4504 25.3125ZM57.2004 63.75H19.7004V58.125C19.7004 51.8812 32.2067 48.75 38.4504 48.75C44.6942 48.75 57.2004 51.8812 57.2004 58.125V63.75Z" fill="#6A26B7"/>
</svg>
