<svg width="94" height="94" viewBox="0 0 94 94" fill="none" xmlns="http://www.w3.org/2000/svg">
<path d="M61.0618 0.125C60.2805 0.125 59.4993 0.645571 59.4993 1.68755V3.32945C59.4993 5.41342 62.6244 5.41342 62.6244 3.32945V1.68755C62.6244 0.645565 61.8431 0.125 61.0618 0.125ZM52.1412 5.91437L53.7099 7.48303C54.636 8.43733 56.2533 7.87398 56.3894 6.46981C56.3916 5.96566 56.2194 5.56002 55.9134 5.26738L54.357 3.71094C53.9897 3.32655 53.572 3.17909 53.1759 3.19822C51.9877 3.2555 50.9943 4.80662 52.1412 5.91437ZM67.7729 3.71094L66.2042 5.26739C64.6623 6.74209 66.94 9.02296 68.4169 7.48303L69.9763 5.91438C70.2669 5.6321 70.4364 5.24807 70.4494 4.84318C70.473 3.95824 69.8062 3.3438 69.0638 3.25315C68.6186 3.19882 68.1452 3.33222 67.7729 3.71094V3.71094ZM12.3814 28.7728C7.82193 29.7731 3.94588 32.1752 1.89819 35.7219C-1.49265 41.595 0.708404 49.5401 2.48698 55.4582C2.97005 57.0647 3.75785 58.4069 4.87353 59.3341C6.02593 60.2917 7.44628 60.727 8.91115 60.5915C9.14619 60.5696 9.37414 60.5251 9.60086 60.4755L11.0749 73.7389C11.3507 76.2223 13.1711 78.2495 15.7474 78.2495H22.0037C24.5801 78.2495 26.4002 76.2223 26.6762 73.7389L29.2123 50.9415C29.4662 51.1937 29.7267 51.4155 30.021 51.6404C31.4602 52.7405 33.1604 53.2548 35.4289 53.2548H46.9985C49.5708 53.2548 51.6923 55.3123 51.6923 57.9363V68.8773H46.9985C45.609 68.878 44.911 70.556 45.8907 71.5415L59.9629 85.6014C60.5724 86.2071 61.5569 86.2071 62.1664 85.6014L76.2263 71.5415C76.5269 71.2429 76.6929 70.8361 76.687 70.4123C76.6693 69.5581 75.9726 68.8738 75.1183 68.8773H70.4246L70.4364 57.9363C70.4367 56.3324 70.2734 54.769 69.9692 53.2578L76.6955 53.2519V57.9456C76.6921 58.8 77.3764 59.4986 78.2306 59.5143C78.6546 59.5208 79.0612 59.3542 79.3598 59.0535L93.4198 44.9936C93.7227 44.6888 93.8745 44.2873 93.8745 43.8888C93.8745 43.4903 93.7227 43.0918 93.4198 42.7871L79.3596 28.715C78.3742 27.7352 76.6962 28.4332 76.6954 29.8228V34.4982H69.9691C70.2773 32.9821 70.4362 31.4159 70.4362 29.8045L70.4244 25.1168H75.1182C75.9725 25.12 76.6712 24.436 76.6868 23.5818C76.6926 23.158 76.5268 22.7512 76.2262 22.4526L62.1664 8.39266C61.8617 8.08982 61.4631 7.93793 61.0647 7.93793C60.6666 7.93794 60.2677 8.08982 59.963 8.39266L45.8907 22.4526C44.911 23.438 45.609 25.116 46.9985 25.1168H51.6923V29.8045C51.6923 32.4286 49.5708 34.4982 46.9985 34.4982C44.9115 34.4968 42.8338 34.5014 40.7484 34.5014C38.6644 34.5014 38.6644 37.6265 40.7484 37.6265H46.9985C58.2791 37.6265 67.3108 46.7077 67.3088 57.9366L67.297 70.434C67.2937 71.3017 67.9978 72.0059 68.8656 72.0026H71.3559L61.0559 82.2935L50.7681 72.0026H53.2462C54.1095 71.9995 54.806 71.2972 54.8027 70.434V57.9366C54.8027 54.0532 52.0178 50.8226 48.2656 50.2307C48.4699 49.7068 48.5644 49.1496 48.5644 48.5582C48.5644 45.988 46.4411 43.8767 43.8706 43.8767H39.6501C39.3312 43.8767 39.0251 43.7705 38.5759 43.2999C38.1264 42.8293 37.5917 41.9958 37.0071 40.9469C35.838 38.8491 34.421 35.9254 31.8861 33.3905C29.927 31.4314 27.5897 29.9156 25.0713 29.0508C27.0307 27.3286 28.2422 24.8021 28.2422 21.9979C28.2421 16.8396 24.0583 12.6273 18.8683 12.6257C13.6783 12.6274 9.49142 16.8396 9.49287 21.9978C9.49432 24.6611 10.5903 27.0616 12.3814 28.7728ZM61.0588 11.7037L71.3589 21.9916H68.8685C68.0007 21.9884 67.2965 22.6925 67.2999 23.5602L67.3117 29.8043C67.3118 34.1361 65.9722 38.1524 63.6736 41.4472C60.6903 38.4342 56.9237 36.226 52.6656 35.1817C54.0188 33.7828 54.808 31.9046 54.808 29.8043V23.5602C54.8111 22.697 54.1147 21.9946 53.2515 21.9916H50.7733L61.0588 11.7037ZM20.4353 31.373C23.5802 31.373 27.0738 32.9942 29.6856 35.6059C31.7773 37.6976 33.0415 40.2551 34.2756 42.4695C34.8926 43.5768 35.4989 44.6 36.3172 45.4573C37.1357 46.3146 38.205 47.0015 39.6529 47.0015H43.8737C44.7659 47.0015 45.4424 47.7143 45.4424 48.558C45.4424 49.4016 44.7663 50.1297 43.8737 50.1297H35.4292C33.6419 50.1297 32.6232 49.7018 31.9134 49.1592C31.1652 48.5872 30.4961 47.6434 29.7161 46.3851L29.8017 45.6068C30.0096 43.4597 26.8652 43.261 26.6979 45.2711L23.5728 73.394C23.4683 74.3364 22.8905 75.1244 22.0041 75.1244H20.4355V57.918C20.4355 55.8341 17.3104 55.8341 17.3104 57.918V75.1244H15.7478C14.8615 75.1244 14.2839 74.3364 14.1792 73.394L11.054 45.2711C10.9702 44.266 10.1411 43.813 9.36026 43.8795C8.57943 43.946 7.84626 44.5333 7.95032 45.6068L9.25042 57.3137C9.04137 57.3895 8.82818 57.4567 8.62479 57.4755C7.93472 57.5393 7.35031 57.3315 6.86995 56.9323C6.33846 56.4906 5.82219 55.7123 5.47524 54.5579C3.4396 47.7853 2.18408 41.4616 4.59933 37.2783C6.60539 33.8038 11.488 31.3729 17.3103 31.373L20.4353 31.373ZM20.4353 37.6262C18.3514 37.6262 18.3514 40.7513 20.4353 40.7513H23.5604C25.6444 40.7513 25.6444 37.6262 23.5604 37.6262H20.4353ZM53.719 86.5292L52.1504 88.0978C50.6211 89.5748 52.8975 91.8387 54.366 90.3013L55.9225 88.7448C56.2284 88.4522 56.3766 88.077 56.3743 87.5729C56.2792 86.5817 55.5937 86.1263 54.8819 86.0775C54.4241 86.0958 54.036 86.2122 53.719 86.5292L53.719 86.5292ZM66.2042 88.7599L67.7729 90.3164C68.7659 91.3262 70.4825 90.6001 70.4494 89.1841C70.4376 88.7792 70.2669 88.3952 69.9763 88.1129L68.4169 86.5443C68.0478 86.1593 67.6176 86.0631 67.2205 86.0835C66.0291 86.1444 65.1699 87.6417 66.2042 88.7599V88.7599ZM59.5023 90.6887V92.3153C59.5023 94.4126 62.6275 94.3768 62.6275 92.3153V90.6887C62.6511 89.6236 61.858 89.0895 61.0649 89.0895C60.2718 89.0895 59.4787 89.6236 59.5023 90.6887Z" fill="#6A26B7"/>
</svg>
