<svg width="68" height="74" viewBox="0 0 68 74" fill="none" xmlns="http://www.w3.org/2000/svg">
<path d="M33.9505 60.4098C34.6097 60.4098 35.2542 60.2143 35.8024 59.848C36.3505 59.4818 36.7778 58.9612 37.0301 58.3521C37.2823 57.743 37.3484 57.0728 37.2197 56.4262C37.0911 55.7796 36.7737 55.1856 36.3075 54.7194C35.8413 54.2533 35.2474 53.9358 34.6008 53.8072C33.9542 53.6786 33.2839 53.7446 32.6748 53.9969C32.0658 54.2492 31.5452 54.6764 31.1789 55.2246C30.8126 55.7727 30.6171 56.4172 30.6171 57.0765C30.6171 57.9605 30.9683 58.8084 31.5934 59.4335C32.2186 60.0586 33.0664 60.4098 33.9505 60.4098ZM50.6171 60.4098C51.2764 60.4098 51.9209 60.2143 52.469 59.848C53.0172 59.4818 53.4444 58.9612 53.6967 58.3521C53.949 57.743 54.015 57.0728 53.8864 56.4262C53.7578 55.7796 53.4403 55.1856 52.9742 54.7194C52.508 54.2533 51.914 53.9358 51.2674 53.8072C50.6208 53.6786 49.9506 53.7446 49.3415 53.9969C48.7324 54.2492 48.2118 54.6764 47.8456 55.2246C47.4793 55.7727 47.2838 56.4172 47.2838 57.0765C47.2838 57.9605 47.635 58.8084 48.2601 59.4335C48.8852 60.0586 49.7331 60.4098 50.6171 60.4098ZM50.6171 47.0765C51.2764 47.0765 51.9209 46.881 52.469 46.5147C53.0172 46.1484 53.4444 45.6278 53.6967 45.0187C53.949 44.4097 54.015 43.7394 53.8864 43.0928C53.7578 42.4462 53.4403 41.8523 52.9742 41.3861C52.508 40.9199 51.914 40.6025 51.2674 40.4738C50.6208 40.3452 49.9506 40.4112 49.3415 40.6635C48.7324 40.9158 48.2118 41.3431 47.8456 41.8912C47.4793 42.4394 47.2838 43.0839 47.2838 43.7431C47.2838 44.6272 47.635 45.475 48.2601 46.1001C48.8852 46.7253 49.7331 47.0765 50.6171 47.0765ZM33.9505 47.0765C34.6097 47.0765 35.2542 46.881 35.8024 46.5147C36.3505 46.1484 36.7778 45.6278 37.0301 45.0187C37.2823 44.4097 37.3484 43.7394 37.2197 43.0928C37.0911 42.4462 36.7737 41.8523 36.3075 41.3861C35.8413 40.9199 35.2474 40.6025 34.6008 40.4738C33.9542 40.3452 33.2839 40.4112 32.6748 40.6635C32.0658 40.9158 31.5452 41.3431 31.1789 41.8912C30.8126 42.4394 30.6171 43.0839 30.6171 43.7431C30.6171 44.6272 30.9683 45.475 31.5934 46.1001C32.2186 46.7253 33.0664 47.0765 33.9505 47.0765ZM57.2838 7.07646H53.9505V3.74312C53.9505 2.85907 53.5993 2.01122 52.9742 1.3861C52.349 0.760979 51.5012 0.40979 50.6171 0.40979C49.7331 0.40979 48.8852 0.760979 48.2601 1.3861C47.635 2.01122 47.2838 2.85907 47.2838 3.74312V7.07646H20.6171V3.74312C20.6171 2.85907 20.2659 2.01122 19.6408 1.3861C19.0157 0.760979 18.1678 0.40979 17.2838 0.40979C16.3997 0.40979 15.5519 0.760979 14.9268 1.3861C14.3016 2.01122 13.9505 2.85907 13.9505 3.74312V7.07646H10.6171C7.96496 7.07646 5.42142 8.13003 3.54606 10.0054C1.6707 11.8808 0.617126 14.4243 0.617126 17.0765V63.7431C0.617126 66.3953 1.6707 68.9388 3.54606 70.8142C5.42142 72.6896 7.96496 73.7431 10.6171 73.7431H57.2838C59.936 73.7431 62.4795 72.6896 64.3549 70.8142C66.2302 68.9388 67.2838 66.3953 67.2838 63.7431V17.0765C67.2838 14.4243 66.2302 11.8808 64.3549 10.0054C62.4795 8.13003 59.936 7.07646 57.2838 7.07646ZM60.6171 63.7431C60.6171 64.6272 60.2659 65.475 59.6408 66.1002C59.0157 66.7253 58.1678 67.0765 57.2838 67.0765H10.6171C9.73307 67.0765 8.88523 66.7253 8.2601 66.1002C7.63498 65.475 7.28379 64.6272 7.28379 63.7431V33.7431H60.6171V63.7431ZM60.6171 27.0765H7.28379V17.0765C7.28379 16.1924 7.63498 15.3446 8.2601 14.7194C8.88523 14.0943 9.73307 13.7431 10.6171 13.7431H13.9505V17.0765C13.9505 17.9605 14.3016 18.8084 14.9268 19.4335C15.5519 20.0586 16.3997 20.4098 17.2838 20.4098C18.1678 20.4098 19.0157 20.0586 19.6408 19.4335C20.2659 18.8084 20.6171 17.9605 20.6171 17.0765V13.7431H47.2838V17.0765C47.2838 17.9605 47.635 18.8084 48.2601 19.4335C48.8852 20.0586 49.7331 20.4098 50.6171 20.4098C51.5012 20.4098 52.349 20.0586 52.9742 19.4335C53.5993 18.8084 53.9505 17.9605 53.9505 17.0765V13.7431H57.2838C58.1678 13.7431 59.0157 14.0943 59.6408 14.7194C60.2659 15.3446 60.6171 16.1924 60.6171 17.0765V27.0765ZM17.2838 47.0765C17.9431 47.0765 18.5875 46.881 19.1357 46.5147C19.6839 46.1484 20.1111 45.6278 20.3634 45.0187C20.6157 44.4097 20.6817 43.7394 20.5531 43.0928C20.4245 42.4462 20.107 41.8523 19.6408 41.3861C19.1746 40.9199 18.5807 40.6025 17.9341 40.4738C17.2875 40.3452 16.6173 40.4112 16.0082 40.6635C15.3991 40.9158 14.8785 41.3431 14.5122 41.8912C14.146 42.4394 13.9505 43.0839 13.9505 43.7431C13.9505 44.6272 14.3016 45.475 14.9268 46.1001C15.5519 46.7253 16.3997 47.0765 17.2838 47.0765ZM17.2838 60.4098C17.9431 60.4098 18.5875 60.2143 19.1357 59.848C19.6839 59.4818 20.1111 58.9612 20.3634 58.3521C20.6157 57.743 20.6817 57.0728 20.5531 56.4262C20.4245 55.7796 20.107 55.1856 19.6408 54.7194C19.1746 54.2533 18.5807 53.9358 17.9341 53.8072C17.2875 53.6786 16.6173 53.7446 16.0082 53.9969C15.3991 54.2492 14.8785 54.6764 14.5122 55.2246C14.146 55.7727 13.9505 56.4172 13.9505 57.0765C13.9505 57.9605 14.3016 58.8084 14.9268 59.4335C15.5519 60.0586 16.3997 60.4098 17.2838 60.4098Z" fill="#902DDD"/>
</svg>
