<svg width="277" height="372" viewBox="0 0 277 372" fill="none" xmlns="http://www.w3.org/2000/svg">
<path d="M4.45135 87.9029C7.10367 67.1554 57.8839 1.00001 125.798 1C176.04 0.999991 208.98 12.0786 243.15 44.4514C281.601 80.8804 276.608 127.404 271.614 178.756C263.916 257.918 271.614 292.432 232.164 329.739C199.062 361.042 154.999 377.186 107.321 368.801C66.3725 361.599 37.6159 350.022 17.435 317.888C4.01549 296.521 1.82617 280.739 4.45135 256.442C6.19616 240.293 13.9681 232.435 17.435 216.502C20.3112 203.283 23.8243 195.622 21.9293 182.267C19.7553 166.946 8.58748 160.844 4.45135 145.838C-1.60973 123.849 1.57709 110.386 4.45135 87.9029Z" stroke="#EECADF" stroke-width="2"/>
</svg>
