<svg width="320" height="392" viewBox="0 0 320 392" fill="none" xmlns="http://www.w3.org/2000/svg">
<path d="M147.5 9.50012C122.131 18.2361 111.295 31.3553 92.0002 50.0001C54.239 86.4893 41.3603 116.442 24.0002 166C7.41129 213.356 -4.49994 243 4.50016 293C10.7774 327.873 21.5679 350.354 50.0002 371.5C90.3608 401.517 130.205 390.497 178.641 377.099L179 377C217.26 366.418 267.5 327 267.5 327C267.5 327 312.76 270.728 317.5 227.5C322.812 179.051 301.27 152.55 281.5 108C263.393 67.1976 264.533 27.0788 223.5 9.50012C196.218 -2.18743 175.563 -0.163329 147.5 9.50012Z" stroke="#EECADF" stroke-width="2"/>
</svg>
