<svg width="283" height="330" viewBox="0 0 283 330" fill="none" xmlns="http://www.w3.org/2000/svg">
<path d="M21.9999 70C51.9999 49 51.9999 21.4999 73.9999 12C136.261 -14.8851 177.966 13.3934 222.5 53.9999C257.595 85.9999 260.154 129.33 268.5 149.5C280.5 178.5 287.52 215 276.5 267C265.48 319 83.9999 351 27.9999 310C6.44781 294.221 -5.87758 260.425 5.99992 236.5C12.6991 223.006 28.0024 224.092 34.4999 210.5C38.5465 202.035 42.4999 199 39.4999 187C36.4999 175 25.5538 164.73 18.4999 149.5C12.8616 137.326 5.99992 117.5 5.99992 117.5C3.49992 108.333 5.96428 81.225 21.9999 70Z" stroke="#EECADF" stroke-width="2"/>
</svg>
