<svg width="205" height="26" viewBox="0 0 205 26" fill="none" xmlns="http://www.w3.org/2000/svg">
<path d="M12.6323 10.1001V13.1641H0.449707V10.1001H12.6323ZM8.21338 5.27832V18.2178H4.88086V5.27832H8.21338ZM26.6826 2.22656V4.11865L19.8101 20H16.0991L22.9717 4.97314H14.1216V2.22656H26.6826ZM29.2705 13.042V12.7734C29.2705 11.0563 29.4495 9.49788 29.8076 8.09814C30.1738 6.6984 30.654 5.46956 31.248 4.41162C31.8503 3.34554 32.5054 2.46257 33.2134 1.7627C33.9214 1.06283 34.6253 0.558268 35.3252 0.249023L35.9966 2.10449C35.5327 2.44629 35.077 2.91829 34.6294 3.52051C34.1818 4.11458 33.7749 4.84701 33.4087 5.71777C33.0506 6.5804 32.7617 7.59766 32.542 8.76953C32.3223 9.93327 32.2124 11.2598 32.2124 12.749V13.0664C32.2124 14.5557 32.3223 15.8862 32.542 17.0581C32.7617 18.2218 33.0506 19.2391 33.4087 20.1099C33.7749 20.9888 34.1818 21.7293 34.6294 22.3315C35.077 22.9338 35.5327 23.4098 35.9966 23.7598L35.3252 25.5664C34.6253 25.2572 33.9214 24.7526 33.2134 24.0527C32.5054 23.361 31.8503 22.4821 31.248 21.416C30.654 20.3581 30.1738 19.1292 29.8076 17.7295C29.4495 16.3216 29.2705 14.7591 29.2705 13.042ZM40.1958 17.3267H40.4277C41.4043 17.3267 42.2425 17.2087 42.9424 16.9727C43.6504 16.7285 44.2323 16.3786 44.688 15.9229C45.1437 15.4671 45.4814 14.9097 45.7012 14.2505C45.9209 13.5832 46.0308 12.8263 46.0308 11.98V8.61084C46.0308 7.96794 45.9657 7.40234 45.8354 6.91406C45.7134 6.42578 45.5343 6.02295 45.2983 5.70557C45.0705 5.38005 44.8019 5.1359 44.4927 4.97314C44.1916 4.81038 43.8579 4.729 43.4917 4.729C43.1011 4.729 42.7552 4.82666 42.4541 5.02197C42.153 5.20915 41.8966 5.46549 41.6851 5.79102C41.4816 6.11654 41.3229 6.49089 41.209 6.91406C41.1032 7.3291 41.0503 7.76449 41.0503 8.22021C41.0503 8.67594 41.1032 9.11133 41.209 9.52637C41.3148 9.93327 41.4735 10.2954 41.6851 10.6128C41.8966 10.922 42.1611 11.1702 42.4785 11.3574C42.7959 11.5365 43.1702 11.626 43.6016 11.626C44.0166 11.626 44.3869 11.5487 44.7124 11.394C45.0461 11.2313 45.3268 11.0197 45.5547 10.7593C45.7907 10.4989 45.9697 10.21 46.0918 9.89258C46.222 9.5752 46.2871 9.25374 46.2871 8.92822L47.4468 9.56299C47.4468 10.1326 47.3247 10.6942 47.0806 11.2476C46.8364 11.8009 46.4946 12.3055 46.0552 12.7612C45.6239 13.2088 45.1234 13.5669 44.5537 13.8354C43.984 14.104 43.3737 14.2383 42.7227 14.2383C41.8926 14.2383 41.1561 14.0877 40.5132 13.7866C39.8703 13.4774 39.325 13.0542 38.8774 12.5171C38.438 11.9718 38.1043 11.3371 37.8765 10.6128C37.6486 9.88851 37.5347 9.10319 37.5347 8.25684C37.5347 7.39421 37.673 6.58447 37.9497 5.82764C38.2345 5.0708 38.6374 4.40348 39.1582 3.82568C39.6872 3.24788 40.3179 2.79622 41.0503 2.4707C41.7909 2.13704 42.6128 1.97021 43.5161 1.97021C44.4194 1.97021 45.2414 2.14518 45.9819 2.49512C46.7225 2.84505 47.3573 3.34147 47.8862 3.98438C48.4152 4.61914 48.8221 5.38005 49.1069 6.26709C49.3999 7.15413 49.5464 8.13883 49.5464 9.22119V10.4419C49.5464 11.5975 49.4202 12.6717 49.168 13.6646C48.9238 14.6574 48.5535 15.5566 48.0571 16.3623C47.5688 17.1598 46.9585 17.8434 46.2261 18.4131C45.5018 18.9827 44.6595 19.4181 43.6992 19.7192C42.7389 20.0203 41.6647 20.1709 40.4766 20.1709H40.1958V17.3267ZM64.2192 17.2534V20H52.061V17.6562L57.8105 11.4917C58.3883 10.8488 58.8441 10.2832 59.1777 9.79492C59.5114 9.2985 59.7515 8.85498 59.8979 8.46436C60.0526 8.06559 60.1299 7.68717 60.1299 7.3291C60.1299 6.79199 60.0404 6.33219 59.8613 5.94971C59.6823 5.55908 59.4178 5.25798 59.0679 5.04639C58.7261 4.8348 58.3029 4.729 57.7983 4.729C57.2612 4.729 56.7974 4.85921 56.4067 5.11963C56.0243 5.38005 55.7313 5.74219 55.5278 6.20605C55.3325 6.66992 55.2349 7.19482 55.2349 7.78076H51.707C51.707 6.72282 51.9593 5.75439 52.4639 4.87549C52.9684 3.98844 53.6805 3.28451 54.6001 2.76367C55.5197 2.2347 56.6102 1.97021 57.8716 1.97021C59.1167 1.97021 60.1665 2.17367 61.021 2.58057C61.8836 2.97933 62.5347 3.55713 62.9741 4.31396C63.4217 5.06266 63.6455 5.95785 63.6455 6.99951C63.6455 7.58545 63.5519 8.15918 63.3647 8.7207C63.1776 9.27409 62.909 9.82747 62.5591 10.3809C62.2173 10.9261 61.8022 11.4795 61.314 12.041C60.8257 12.6025 60.2845 13.1844 59.6904 13.7866L56.6021 17.2534H64.2192ZM78.3916 15.1294C78.3916 16.2443 78.1312 17.1842 77.6104 17.9492C77.0895 18.7061 76.3734 19.2798 75.4619 19.6704C74.5586 20.0529 73.5332 20.2441 72.3857 20.2441C71.2383 20.2441 70.2088 20.0529 69.2974 19.6704C68.3859 19.2798 67.6657 18.7061 67.1367 17.9492C66.6077 17.1842 66.3433 16.2443 66.3433 15.1294C66.3433 14.3807 66.4938 13.7052 66.7949 13.103C67.096 12.4927 67.5151 11.9718 68.0522 11.5405C68.5975 11.1011 69.2363 10.7674 69.9688 10.5396C70.7012 10.3035 71.4987 10.1855 72.3613 10.1855C73.5169 10.1855 74.5505 10.389 75.4619 10.7959C76.3734 11.2028 77.0895 11.7765 77.6104 12.5171C78.1312 13.2576 78.3916 14.1284 78.3916 15.1294ZM74.8516 14.8975C74.8516 14.3522 74.7458 13.8843 74.5342 13.4937C74.3307 13.0949 74.0418 12.7897 73.6675 12.5781C73.2931 12.3665 72.8577 12.2607 72.3613 12.2607C71.8649 12.2607 71.4295 12.3665 71.0552 12.5781C70.6808 12.7897 70.3879 13.0949 70.1763 13.4937C69.9728 13.8843 69.8711 14.3522 69.8711 14.8975C69.8711 15.4346 69.9728 15.8984 70.1763 16.2891C70.3879 16.6797 70.6808 16.9808 71.0552 17.1924C71.4377 17.3958 71.8812 17.4976 72.3857 17.4976C72.8903 17.4976 73.3257 17.3958 73.6919 17.1924C74.0662 16.9808 74.3511 16.6797 74.5464 16.2891C74.7498 15.8984 74.8516 15.4346 74.8516 14.8975ZM78.0132 6.93848C78.0132 7.8418 77.7731 8.64339 77.293 9.34326C76.8128 10.035 76.1455 10.5762 75.291 10.9668C74.4447 11.3574 73.4762 11.5527 72.3857 11.5527C71.2871 11.5527 70.3105 11.3574 69.4561 10.9668C68.6016 10.5762 67.9342 10.035 67.4541 9.34326C66.974 8.64339 66.7339 7.8418 66.7339 6.93848C66.7339 5.86426 66.974 4.96094 67.4541 4.22852C67.9424 3.48796 68.6097 2.92643 69.4561 2.54395C70.3105 2.16146 71.279 1.97021 72.3613 1.97021C73.46 1.97021 74.4325 2.16146 75.2788 2.54395C76.1333 2.92643 76.8006 3.48796 77.2808 4.22852C77.769 4.96094 78.0132 5.86426 78.0132 6.93848ZM74.4976 7.09717C74.4976 6.61702 74.4121 6.20199 74.2412 5.85205C74.0703 5.49398 73.8262 5.21729 73.5088 5.02197C73.1995 4.82666 72.8171 4.729 72.3613 4.729C71.9219 4.729 71.5435 4.82259 71.2261 5.00977C70.9168 5.19694 70.6768 5.46956 70.5059 5.82764C70.3431 6.17757 70.2617 6.60075 70.2617 7.09717C70.2617 7.57731 70.3431 8.00049 70.5059 8.3667C70.6768 8.72477 70.9209 9.00553 71.2383 9.20898C71.5557 9.41243 71.9382 9.51416 72.3857 9.51416C72.8333 9.51416 73.2118 9.41243 73.521 9.20898C73.8384 9.00553 74.0785 8.72477 74.2412 8.3667C74.4121 8.00049 74.4976 7.57731 74.4976 7.09717ZM86.9609 12.7734V13.042C86.9609 14.7021 86.7738 16.2321 86.3994 17.6318C86.0251 19.0234 85.5286 20.2563 84.9102 21.3306C84.2998 22.4129 83.6284 23.3122 82.896 24.0283C82.1717 24.7445 81.4474 25.2572 80.7231 25.5664L80.0396 23.7598C80.5034 23.418 80.9551 22.946 81.3945 22.3438C81.8421 21.7415 82.249 21.001 82.6152 20.1221C82.9814 19.2513 83.2703 18.23 83.4819 17.0581C83.7017 15.8862 83.8115 14.5557 83.8115 13.0664V12.749C83.8115 11.2598 83.7017 9.9292 83.4819 8.75732C83.2622 7.58545 82.9652 6.56413 82.5908 5.69336C82.2246 4.81445 81.8177 4.07796 81.3701 3.48389C80.9307 2.88167 80.4871 2.40967 80.0396 2.06787L80.7231 0.249023C81.4474 0.558268 82.1717 1.07503 82.896 1.79932C83.6284 2.51546 84.2998 3.41064 84.9102 4.48486C85.5286 5.55908 86.0251 6.79606 86.3994 8.1958C86.7738 9.5874 86.9609 11.1133 86.9609 12.7734ZM98.2769 17.3267H98.5088C99.4854 17.3267 100.324 17.2087 101.023 16.9727C101.731 16.7285 102.313 16.3786 102.769 15.9229C103.225 15.4671 103.562 14.9097 103.782 14.2505C104.002 13.5832 104.112 12.8263 104.112 11.98V8.61084C104.112 7.96794 104.047 7.40234 103.917 6.91406C103.794 6.42578 103.615 6.02295 103.379 5.70557C103.152 5.38005 102.883 5.1359 102.574 4.97314C102.273 4.81038 101.939 4.729 101.573 4.729C101.182 4.729 100.836 4.82666 100.535 5.02197C100.234 5.20915 99.9777 5.46549 99.7661 5.79102C99.5627 6.11654 99.404 6.49089 99.29 6.91406C99.1842 7.3291 99.1313 7.76449 99.1313 8.22021C99.1313 8.67594 99.1842 9.11133 99.29 9.52637C99.3958 9.93327 99.5545 10.2954 99.7661 10.6128C99.9777 10.922 100.242 11.1702 100.56 11.3574C100.877 11.5365 101.251 11.626 101.683 11.626C102.098 11.626 102.468 11.5487 102.793 11.394C103.127 11.2313 103.408 11.0197 103.636 10.7593C103.872 10.4989 104.051 10.21 104.173 9.89258C104.303 9.5752 104.368 9.25374 104.368 8.92822L105.528 9.56299C105.528 10.1326 105.406 10.6942 105.162 11.2476C104.917 11.8009 104.576 12.3055 104.136 12.7612C103.705 13.2088 103.204 13.5669 102.635 13.8354C102.065 14.104 101.455 14.2383 100.804 14.2383C99.9736 14.2383 99.2371 14.0877 98.5942 13.7866C97.9513 13.4774 97.4061 13.0542 96.9585 12.5171C96.519 11.9718 96.1854 11.3371 95.9575 10.6128C95.7297 9.88851 95.6157 9.10319 95.6157 8.25684C95.6157 7.39421 95.7541 6.58447 96.0308 5.82764C96.3156 5.0708 96.7184 4.40348 97.2393 3.82568C97.7682 3.24788 98.3989 2.79622 99.1313 2.4707C99.8719 2.13704 100.694 1.97021 101.597 1.97021C102.5 1.97021 103.322 2.14518 104.063 2.49512C104.804 2.84505 105.438 3.34147 105.967 3.98438C106.496 4.61914 106.903 5.38005 107.188 6.26709C107.481 7.15413 107.627 8.13883 107.627 9.22119V10.4419C107.627 11.5975 107.501 12.6717 107.249 13.6646C107.005 14.6574 106.635 15.5566 106.138 16.3623C105.65 17.1598 105.04 17.8434 104.307 18.4131C103.583 18.9827 102.741 19.4181 101.78 19.7192C100.82 20.0203 99.7458 20.1709 98.5576 20.1709H98.2769V17.3267ZM119.212 2.04346H119.725V4.85107H119.517C118.589 4.85107 117.763 4.98942 117.039 5.26611C116.315 5.54281 115.7 5.9375 115.196 6.4502C114.699 6.95475 114.317 7.5651 114.048 8.28125C113.788 8.9974 113.658 9.79899 113.658 10.686V13.6401C113.658 14.2749 113.719 14.8364 113.841 15.3247C113.971 15.8049 114.154 16.2077 114.39 16.5332C114.634 16.8506 114.919 17.0907 115.245 17.2534C115.57 17.408 115.936 17.4854 116.343 17.4854C116.726 17.4854 117.072 17.404 117.381 17.2412C117.698 17.0785 117.967 16.8506 118.187 16.5576C118.414 16.2565 118.585 15.9066 118.699 15.5078C118.821 15.1009 118.882 14.6574 118.882 14.1772C118.882 13.6971 118.821 13.2536 118.699 12.8467C118.585 12.4398 118.414 12.0898 118.187 11.7969C117.959 11.4958 117.682 11.2638 117.356 11.1011C117.031 10.9383 116.665 10.8569 116.258 10.8569C115.704 10.8569 115.216 10.9871 114.793 11.2476C114.378 11.4998 114.052 11.8254 113.816 12.2241C113.58 12.6229 113.454 13.042 113.438 13.4814L112.376 12.7979C112.4 12.1712 112.531 11.5771 112.767 11.0156C113.011 10.4541 113.344 9.95768 113.768 9.52637C114.199 9.08691 114.716 8.74512 115.318 8.50098C115.92 8.2487 116.6 8.12256 117.356 8.12256C118.187 8.12256 118.915 8.28125 119.542 8.59863C120.176 8.91602 120.705 9.3514 121.128 9.90479C121.552 10.4582 121.869 11.097 122.081 11.8213C122.292 12.5456 122.398 13.3187 122.398 14.1406C122.398 15.0033 122.256 15.8049 121.971 16.5454C121.694 17.286 121.291 17.9329 120.762 18.4863C120.241 19.0397 119.615 19.471 118.882 19.7803C118.15 20.0895 117.328 20.2441 116.417 20.2441C115.472 20.2441 114.614 20.0732 113.841 19.7314C113.076 19.3815 112.417 18.8932 111.863 18.2666C111.31 17.64 110.883 16.8953 110.582 16.0327C110.289 15.1701 110.142 14.2261 110.142 13.2007V11.8335C110.142 10.4012 110.35 9.09098 110.765 7.90283C111.188 6.70654 111.794 5.67301 112.583 4.80225C113.373 3.92334 114.325 3.24382 115.44 2.76367C116.555 2.28353 117.812 2.04346 119.212 2.04346ZM133.067 2.18994V20H129.551V6.24268L125.328 7.58545V4.81445L132.688 2.18994H133.067ZM148.68 9.5874H150.56C151.162 9.5874 151.658 9.48568 152.049 9.28223C152.439 9.07064 152.728 8.77767 152.916 8.40332C153.111 8.02083 153.208 7.57731 153.208 7.07275C153.208 6.61702 153.119 6.21419 152.94 5.86426C152.769 5.50618 152.505 5.22949 152.146 5.03418C151.788 4.83073 151.337 4.729 150.792 4.729C150.36 4.729 149.961 4.81445 149.595 4.98535C149.229 5.15625 148.936 5.39632 148.716 5.70557C148.497 6.01481 148.387 6.38916 148.387 6.82861H144.859C144.859 5.85205 145.119 5.00163 145.64 4.27734C146.169 3.55306 146.877 2.98747 147.764 2.58057C148.651 2.17367 149.628 1.97021 150.694 1.97021C151.898 1.97021 152.952 2.16553 153.855 2.55615C154.759 2.93864 155.463 3.50423 155.967 4.25293C156.472 5.00163 156.724 5.92936 156.724 7.03613C156.724 7.59766 156.594 8.1429 156.333 8.67188C156.073 9.19271 155.699 9.66471 155.21 10.0879C154.73 10.5029 154.144 10.8366 153.453 11.0889C152.761 11.333 151.984 11.4551 151.121 11.4551H148.68V9.5874ZM148.68 12.2607V10.4419H151.121C152.09 10.4419 152.94 10.5518 153.672 10.7715C154.405 10.9912 155.019 11.3086 155.516 11.7236C156.012 12.1305 156.386 12.6147 156.639 13.1763C156.891 13.7297 157.017 14.3441 157.017 15.0195C157.017 15.8496 156.858 16.5902 156.541 17.2412C156.224 17.8841 155.776 18.4294 155.198 18.877C154.629 19.3245 153.961 19.6663 153.196 19.9023C152.431 20.1302 151.597 20.2441 150.694 20.2441C149.945 20.2441 149.209 20.1424 148.484 19.939C147.768 19.7274 147.117 19.4141 146.531 18.999C145.953 18.5758 145.49 18.0469 145.14 17.4121C144.798 16.7692 144.627 16.0083 144.627 15.1294H148.155C148.155 15.5851 148.269 15.992 148.497 16.3501C148.724 16.7082 149.038 16.9889 149.437 17.1924C149.843 17.3958 150.295 17.4976 150.792 17.4976C151.353 17.4976 151.833 17.3958 152.232 17.1924C152.639 16.9808 152.948 16.6878 153.16 16.3135C153.379 15.931 153.489 15.4875 153.489 14.9829C153.489 14.3319 153.371 13.811 153.135 13.4204C152.899 13.0216 152.562 12.7287 152.122 12.5415C151.683 12.3543 151.162 12.2607 150.56 12.2607H148.68ZM171.507 2.22656V4.11865L164.634 20H160.923L167.796 4.97314H158.946V2.22656H171.507ZM182.994 6.79199L185.179 10.8081L187.425 6.79199H191.172L187.437 13.2495L191.343 20H187.583L185.203 15.752L182.823 20H179.063L182.969 13.2495L179.234 6.79199H182.994ZM195.713 6.79199L197.898 10.8081L200.145 6.79199H203.892L200.157 13.2495L204.063 20H200.303L197.923 15.752L195.542 20H191.783L195.689 13.2495L191.954 6.79199H195.713Z" fill="#EF8FB2"/>
</svg>
