<svg width="1069" height="966" viewBox="0 0 1069 966" fill="none" xmlns="http://www.w3.org/2000/svg">
<path d="M23.3108 -123.446C42.3938 -176.486 92.0577 -193.202 93.5165 -249.554C93.598 -252.7 93.5165 -257.612 93.5165 -257.612L1268 -478L1159.28 821.764C1159.28 821.764 1118.85 909.177 1068.11 933.771C1001.71 965.952 928.688 984.911 875.5 933.771C813 873.677 827.5 851.622 759.008 821.764C626.5 764 443 701.5 410 672.287C395 659.009 264.5 600.5 307.059 451.497C314.685 424.798 339.907 417.405 343.21 389.611C352.553 311 261.008 300.86 227 285.5C192.992 270.14 176.706 261.544 147.146 238.764C125.705 222.24 112.619 214.029 93.5165 194.847C59.3196 160.509 41.8868 137.278 23.3108 92.5102C5.01712 48.4225 -1.79769 20.13 0.396432 -27.5548C2.1662 -66.017 10.2767 -87.2179 23.3108 -123.446Z" fill="url(#paint0_linear_13_406)"/>
<defs>
<linearGradient id="paint0_linear_13_406" x1="539.5" y1="-243" x2="838" y2="1064" gradientUnits="userSpaceOnUse">
<stop stop-color="#A693F0"/>
<stop offset="0.725012" stop-color="#EF8FB2"/>
</linearGradient>
</defs>
</svg>
