<svg width="145" height="145" viewBox="0 0 145 145" fill="none" xmlns="http://www.w3.org/2000/svg">
<path d="M129.594 58.9062C122.344 59.8125 115.547 56.6406 111.469 49.8438C107.844 43.5 108.297 35.3437 112.828 29.9062C106.031 23.5625 97.875 19.0312 89.2656 16.3125C86.5469 22.6562 80.2031 27.1875 72.5 27.1875C64.7969 27.1875 58.4531 22.6562 55.7344 15.8594C46.6719 18.5781 38.5156 23.1094 32.1719 29.4531C36.25 35.3437 37.1563 43.5 33.0781 49.8438C29.4531 56.1875 22.2031 59.8125 14.9531 58.9062C14.0469 63.4375 13.1406 67.9688 13.1406 72.5C13.1406 77.0312 13.5937 82.0156 14.9531 86.0938C22.2031 85.1875 29 88.3594 33.0781 95.1562C36.7031 101.5 36.25 109.656 31.7187 115.094C38.5156 121.437 46.6719 125.969 55.2812 128.687C58 122.344 64.3437 117.359 72.0469 117.359C79.75 117.359 86.0938 121.891 88.8125 128.687C97.875 125.969 106.031 121.437 112.375 115.094C108.297 109.656 107.391 101.5 111.016 95.1562C114.641 88.8125 121.891 85.1875 129.141 86.0938C130.047 81.5625 130.953 77.0312 130.953 72.5C131.406 67.9688 130.953 62.9844 129.594 58.9062Z" stroke="#FFF5F0" stroke-width="9" stroke-miterlimit="10" stroke-linecap="round" stroke-linejoin="round"/>
<path d="M49.8438 58.9062L36.25 72.5L49.8438 86.0938" stroke="#FFF5F0" stroke-width="9" stroke-miterlimit="10" stroke-linecap="round" stroke-linejoin="round"/>
<path d="M95.1562 58.9062L108.75 72.5L95.1562 86.0938" stroke="#FFF5F0" stroke-width="9" stroke-miterlimit="10" stroke-linecap="round" stroke-linejoin="round"/>
<path d="M81.5625 54.375L63.4375 90.625" stroke="#FFF5F0" stroke-width="9" stroke-miterlimit="10" stroke-linecap="round" stroke-linejoin="round"/>
</svg>
