<svg width="129" height="24" viewBox="0 0 129 24" fill="none" xmlns="http://www.w3.org/2000/svg">
<path d="M3.73389 0.226562V18H0.0839844V0.226562H3.73389ZM14.7446 0.226562V18H11.0947V0.226562H14.7446ZM20.2134 0.226562V3.09521H5.71143V0.226562H20.2134ZM25.8408 8.99121V11.75H18.9438V8.99121H25.8408ZM32.6646 0.226562V18H29.0024V0.226562H32.6646ZM43.1382 0.226562L36.3267 10.6636H31.8467L31.3828 7.4043H34.3735L38.6948 0.226562H43.1382ZM39.3662 18L34.3857 10.0532L36.9248 7.44092L43.7119 18H39.3662ZM51.5122 12.4824H47.374L47.3496 10.1753H50.7676C51.2233 10.1753 51.5936 10.1305 51.8784 10.041C52.1632 9.94336 52.3708 9.80094 52.501 9.61377C52.6393 9.41846 52.7085 9.18245 52.7085 8.90576C52.7085 8.66162 52.6637 8.4541 52.5742 8.2832C52.4928 8.10417 52.3667 7.95768 52.1958 7.84375C52.0249 7.72982 51.8092 7.64844 51.5488 7.59961C51.2965 7.54264 50.9995 7.51416 50.6577 7.51416H48.6802V18H45.1646V4.79199H50.6577C51.5203 4.79199 52.2935 4.8693 52.9771 5.02393C53.6606 5.17041 54.2425 5.39421 54.7227 5.69531C55.2109 5.99642 55.5812 6.37891 55.8335 6.84277C56.0939 7.2985 56.2241 7.83968 56.2241 8.46631C56.2241 8.87321 56.1305 9.2557 55.9434 9.61377C55.7643 9.97184 55.4958 10.2892 55.1377 10.5659C54.7796 10.8426 54.3361 11.0705 53.8071 11.2495C53.2863 11.4204 52.6841 11.5262 52.0005 11.5669L51.5122 12.4824ZM51.5122 18H46.5073L47.7158 15.2778H51.5122C51.9435 15.2778 52.2975 15.2249 52.5742 15.1191C52.8509 15.0133 53.0544 14.8587 53.1846 14.6553C53.3229 14.4437 53.3921 14.1914 53.3921 13.8984C53.3921 13.6136 53.3311 13.3654 53.209 13.1538C53.0869 12.9422 52.8875 12.7795 52.6108 12.6655C52.3423 12.5435 51.9761 12.4824 51.5122 12.4824H48.2285L48.2529 10.1753H51.9883L52.8428 11.103C53.7705 11.16 54.5355 11.335 55.1377 11.6279C55.7399 11.9209 56.1834 12.2952 56.4683 12.751C56.7612 13.1986 56.9077 13.6909 56.9077 14.228C56.9077 14.8547 56.7897 15.404 56.5537 15.876C56.3177 16.348 55.9678 16.7427 55.5039 17.0601C55.0482 17.3693 54.4867 17.6053 53.8193 17.7681C53.152 17.9227 52.383 18 51.5122 18ZM66.1973 15.0215V9.1377C66.1973 8.71452 66.1281 8.35238 65.9897 8.05127C65.8514 7.74202 65.6357 7.50195 65.3428 7.33105C65.0579 7.16016 64.6877 7.07471 64.2319 7.07471C63.8413 7.07471 63.5036 7.14388 63.2188 7.28223C62.9339 7.41243 62.7142 7.60368 62.5596 7.85596C62.4049 8.1001 62.3276 8.389 62.3276 8.72266H58.812C58.812 8.16113 58.9422 7.62809 59.2026 7.12354C59.4631 6.61898 59.8415 6.17546 60.3379 5.79297C60.8343 5.40234 61.4243 5.09717 62.1079 4.87744C62.7996 4.65771 63.5728 4.54785 64.4272 4.54785C65.4526 4.54785 66.3641 4.71875 67.1616 5.06055C67.9591 5.40234 68.5858 5.91504 69.0415 6.59863C69.5054 7.28223 69.7373 8.13672 69.7373 9.16211V14.814C69.7373 15.5382 69.7821 16.1323 69.8716 16.5962C69.9611 17.0519 70.0913 17.4507 70.2622 17.7925V18H66.71C66.5391 17.6419 66.4089 17.1943 66.3193 16.6572C66.238 16.112 66.1973 15.5667 66.1973 15.0215ZM66.6611 9.95557L66.6855 11.9453H64.7202C64.2563 11.9453 63.8535 11.9982 63.5117 12.104C63.1699 12.2098 62.8892 12.3604 62.6694 12.5557C62.4497 12.7428 62.2869 12.9626 62.1812 13.2148C62.0835 13.4671 62.0347 13.7438 62.0347 14.0449C62.0347 14.346 62.1038 14.6187 62.2422 14.8628C62.3805 15.0988 62.5799 15.286 62.8403 15.4243C63.1007 15.5545 63.4059 15.6196 63.7559 15.6196C64.2848 15.6196 64.7446 15.5138 65.1353 15.3022C65.5259 15.0907 65.827 14.8302 66.0386 14.521C66.2583 14.2118 66.3722 13.9188 66.3804 13.6421L67.3081 15.1313C67.1779 15.465 66.9989 15.8109 66.771 16.1689C66.5513 16.527 66.2705 16.8647 65.9287 17.1821C65.5869 17.4914 65.1759 17.7477 64.6958 17.9512C64.2157 18.1465 63.646 18.2441 62.9868 18.2441C62.1486 18.2441 61.3877 18.0773 60.7041 17.7437C60.0286 17.4019 59.4915 16.9339 59.0928 16.3398C58.7021 15.7376 58.5068 15.054 58.5068 14.2891C58.5068 13.5973 58.637 12.9829 58.8975 12.4458C59.1579 11.9087 59.5404 11.457 60.0449 11.0908C60.5576 10.7165 61.1965 10.4357 61.9614 10.2485C62.7264 10.0532 63.6134 9.95557 64.6226 9.95557H66.6611ZM81.4927 10.1265V12.8608H74.7788V10.1265H81.4927ZM75.9507 4.79199V18H72.4351V4.79199H75.9507ZM83.873 4.79199V18H80.3452V4.79199H83.873ZM93.3335 4.79199V18H89.8057V4.79199H93.3335ZM97.5815 4.79199V7.51416H85.6187V4.79199H97.5815ZM103.441 16.5107L106.944 4.79199H110.716L105.406 19.9897C105.292 20.3234 105.138 20.6815 104.942 21.064C104.755 21.4465 104.499 21.8086 104.173 22.1504C103.856 22.5003 103.453 22.7852 102.965 23.0049C102.485 23.2246 101.895 23.3345 101.195 23.3345C100.861 23.3345 100.589 23.3141 100.377 23.2734C100.165 23.2327 99.9131 23.1758 99.6201 23.1025V20.5269C99.7096 20.5269 99.8032 20.5269 99.9009 20.5269C99.9985 20.535 100.092 20.5391 100.182 20.5391C100.646 20.5391 101.024 20.4862 101.317 20.3804C101.61 20.2746 101.846 20.1118 102.025 19.8921C102.204 19.6805 102.346 19.4038 102.452 19.062L103.441 16.5107ZM101.976 4.79199L104.845 14.3623L105.345 18.0854L102.953 18.3418L98.2041 4.79199H101.976ZM120.152 13.9595L123.619 4.79199H126.488L121.336 18H118.968L113.841 4.79199H116.71L120.152 13.9595ZM115.868 4.79199V18H112.352V4.79199H115.868ZM124.522 18V4.79199H128.038V18H124.522Z" fill="#EF8FB2"/>
</svg>
