<svg width="108" height="138" viewBox="0 0 108 138" fill="none" xmlns="http://www.w3.org/2000/svg">
<path d="M29.2146 0.271048C28.5194 0.292563 27.7798 0.545053 26.9307 1.21491C24.8507 0.412852 22.8261 0.129682 21.0228 1.7626C18.238 1.40141 17.3386 2.15056 16.653 3.0211C16.0417 3.00795 12.073 2.39592 10.2556 5.10696C5.68838 4.56648 4.2503 7.79594 5.88584 10.8051C4.95306 12.2492 3.98406 13.6689 6.16551 16.4218C5.39377 17.9551 5.87421 19.6177 7.692 21.6305C7.2122 23.786 8.15634 25.3046 9.84775 26.4897C9.53139 29.4394 12.5464 31.1576 13.4485 31.7685C13.7949 33.4872 14.519 35.1133 17.9697 36.0101C18.5389 38.5711 20.6109 39.0149 22.6191 39.5525C15.9814 43.411 10.2869 48.4795 10.3255 60.9353L9.35835 62.6716C1.74719 67.3001 -5.10191 82.1818 5.60618 94.2738C6.3056 98.0587 7.47489 100.774 8.51935 103.783C10.0815 115.907 20.2798 121.592 22.9688 122.264C26.9092 125.265 31.1098 128.112 36.7889 130.106C42.1424 135.627 47.9353 137.73 54 137.73C60.0648 137.731 65.8577 135.627 71.2112 130.106C76.8903 128.112 81.091 125.265 85.0313 122.264C87.7202 121.592 97.9186 115.907 99.4807 103.783C100.525 100.774 101.694 98.0587 102.394 94.2738C113.102 82.1818 106.253 67.3001 98.6417 62.6716L97.6746 60.9353C97.7132 48.4795 92.0187 43.411 85.3809 39.5525C87.3891 39.0149 89.4612 38.5711 90.0304 36.0101C93.4811 35.1133 94.2052 33.4872 94.5516 31.7685C95.4537 31.1576 98.4687 29.4394 98.1523 26.4897C99.8437 25.3046 100.788 23.786 100.308 21.6305C102.126 19.6177 102.606 17.9551 101.835 16.4218C104.016 13.6689 103.047 12.2492 102.114 10.8051C103.75 7.79594 102.312 4.56648 97.7445 5.10696C95.9271 2.39592 91.9584 3.00803 91.3471 3.0211C90.6615 2.15056 89.7621 1.40141 86.9773 1.7626C85.1739 0.129682 83.1493 0.412852 81.0694 1.21491C80.2203 0.545053 79.4806 0.292683 78.7854 0.271048C77.4587 0.229889 76.3285 1.037 75.1032 1.42468C72.111 0.447516 71.4332 1.7769 69.9643 2.32193C66.7032 1.63267 65.7148 3.13892 64.1496 4.72243L62.3201 4.68737C57.4023 7.5854 54.9716 13.48 54 13.48C53.0285 13.48 50.5978 7.5854 45.68 4.68737L43.8505 4.72243C42.2852 3.13892 41.2969 1.63267 38.0358 2.32193C36.5668 1.7769 35.8891 0.447516 32.8969 1.42468C31.6716 1.037 30.5414 0.229889 29.2146 0.271048ZM29.3894 3.75522C31.8872 4.68068 33.1855 5.87392 34.54 7.05297C34.9995 6.4332 35.6971 5.97321 34.8429 4.47767C36.6167 5.4999 37.9562 6.70549 38.9447 8.05508C40.0416 7.35642 39.5915 6.40699 39.5972 5.52648C41.4406 7.02576 42.6169 8.61759 44.0486 10.1759C44.3371 9.96559 44.5831 9.25147 44.806 8.12501C49.2033 12.3909 55.4154 23.1385 46.4024 27.3987C38.7362 21.0761 29.5829 16.4796 19.438 13.0308C32.4803 19.7558 40.0684 25.1887 44.2234 29.8224C42.0947 38.3532 30.9909 38.7547 26.9307 38.5154C27.7623 38.1284 28.4563 37.6543 28.7019 36.9423C27.6831 36.2179 24.0693 36.8675 21.5471 35.4507C22.5159 35.25 22.9704 35.0589 23.4232 34.3437C21.0408 33.5838 18.477 32.9224 16.9676 31.6635C17.7822 31.6735 18.5373 31.8533 19.6011 31.1159C17.4671 29.9655 15.1944 29.0514 13.4252 27.2938C14.5286 27.2667 15.7128 27.2802 16.0587 26.8743C14.1053 25.6642 12.4588 24.3144 11.0946 22.8424C12.6387 23.0288 13.2849 22.8787 13.6582 22.6093C12.1818 21.0971 10.3192 19.8231 9.42827 17.9599C10.5747 18.3548 11.6202 18.4947 12.3764 17.9133C11.8746 16.7815 9.722 16.1187 8.48437 13.4736C9.69132 13.5906 10.9784 13.737 11.2344 13.4736C10.6742 11.1912 9.71849 9.90925 8.77571 8.57942C11.3588 8.54117 15.2688 8.58819 15.0915 8.36973L13.4951 6.73837C16.0182 6.05899 18.6009 6.85212 20.4751 7.4375C21.3167 6.77339 20.4532 5.92934 19.4263 5.07198C21.5706 5.35826 23.513 5.84913 25.2643 6.52855C26.2001 5.6837 24.6475 4.84487 23.901 3.99991C27.2137 4.62864 28.6241 5.50452 30.0187 6.38874C31.031 5.4187 30.0723 4.59991 29.3894 3.75522ZM78.6107 3.75522C77.9277 4.59991 76.9691 5.4187 77.9814 6.38874C79.376 5.50452 80.7864 4.62864 84.0991 3.99991C83.3526 4.84487 81.7999 5.6837 82.7357 6.52855C84.4871 5.84913 86.4294 5.35826 88.5737 5.07198C87.547 5.92934 86.6834 6.77339 87.5251 7.4375C89.3993 6.85212 91.9819 6.05899 94.505 6.73837L92.9086 8.36973C92.7313 8.58799 96.6412 8.54137 99.2244 8.57942C98.2815 9.90925 97.3259 11.1912 96.7657 13.4736C97.0217 13.737 98.3088 13.5906 99.5157 13.4736C98.2781 16.1187 96.1255 16.7815 95.6237 17.9133C96.3799 18.4947 97.4253 18.3548 98.5719 17.9599C97.6809 19.8231 95.8183 21.0971 94.3419 22.6093C94.7152 22.8786 95.3614 23.0288 96.9055 22.8424C95.5413 24.3144 93.8948 25.6642 91.9414 26.8743C92.2873 27.28 93.4715 27.2666 94.5749 27.2938C92.8057 29.0514 90.5331 29.9655 88.399 31.1159C89.4628 31.8533 90.2179 31.6736 91.0325 31.6635C89.5231 32.9224 86.9593 33.5838 84.5769 34.3437C85.0297 35.0589 85.4842 35.25 86.453 35.4507C83.9308 36.8675 80.3169 36.2179 79.2982 36.9423C79.5438 37.6543 80.2378 38.1284 81.0694 38.5154C77.0093 38.7547 65.9054 38.3532 63.7767 29.8224C67.9317 25.1887 75.5198 19.7558 88.5621 13.0308C78.4172 16.4796 69.2638 21.0761 61.5976 27.3987C52.5847 23.1385 58.7967 12.3909 63.1941 8.12501C63.417 9.25147 63.663 9.96559 63.9515 10.1759C65.3832 8.61759 66.5595 7.02576 68.4028 5.52648C68.4084 6.40699 67.9584 7.35642 69.0554 8.05508C70.0439 6.70549 71.3834 5.4999 73.1572 4.47767C72.3029 5.97321 73.0005 6.4332 73.4601 7.05297C74.8145 5.87392 76.1128 4.68068 78.6107 3.75522ZM54 39.0454C61.7814 39.0454 68.2703 44.3327 68.2863 47.4414C68.3067 51.3412 62.5912 55.3459 54.1049 55.4469C54.0695 55.447 54.0355 55.4467 54 55.4469C53.9646 55.4467 53.9305 55.447 53.8952 55.4469C45.4088 55.3459 39.6937 51.3412 39.7137 47.4414C39.7301 44.3327 46.2186 39.0454 54 39.0454ZM32.1628 41.6034C32.3222 41.5994 32.4803 41.5994 32.6405 41.6034C33.9013 41.6098 35.2008 41.7184 36.5209 41.9413C40.9668 42.6884 15.2088 65.1827 14.8118 60.1662C14.4566 48.6947 22.1326 41.7637 32.1628 41.6034ZM75.3596 41.6034C75.5198 41.5994 75.6779 41.5994 75.8373 41.6034C85.8675 41.7637 93.5436 48.6947 93.1882 60.1662C92.7913 65.1827 67.0332 42.6884 71.4792 41.9413C72.7992 41.7184 74.0988 41.6101 75.3596 41.6034ZM36.2646 55.9246C37.7483 55.9135 39.2516 56.1322 40.7159 56.6238C48.5256 59.2453 52.4725 68.3789 49.5371 77.0161C46.6015 85.6532 37.8867 90.5329 30.0769 87.9114C22.2672 85.2898 18.3204 76.1562 21.2558 67.5191C23.6409 60.5014 29.8353 55.9725 36.2646 55.9246ZM71.7355 55.9246C78.1648 55.9725 84.3592 60.5014 86.7443 67.5191C89.6797 76.1562 85.7329 85.2898 77.9231 87.9114C70.1134 90.5329 61.3985 85.6532 58.463 77.0161C55.5276 68.3789 59.4745 59.2453 67.2842 56.6238C68.7485 56.1322 70.2518 55.9138 71.7355 55.9246ZM13.4252 65.5614C19.5107 65.6509 14.9877 94.4973 9.47485 92.0481C3.21635 87.0146 1.20436 72.2805 12.8076 65.6547C12.9715 65.6107 13.1224 65.5822 13.2737 65.5731C13.323 65.5691 13.3772 65.5608 13.4252 65.5616V65.5614ZM94.5749 65.5614C94.6229 65.5614 94.6771 65.5694 94.7264 65.573C94.8777 65.5818 95.0287 65.6109 95.1925 65.6546C106.796 72.2804 104.784 87.0145 98.5252 92.0481C93.0123 94.4972 88.4894 65.6508 94.5749 65.5614V65.5614ZM54 85.5085C58.1016 85.5085 61.9442 86.995 64.7322 89.5195C67.7062 92.2123 69.4394 96.0471 69.4166 99.8904C69.4166 103.664 67.7308 107.407 64.8371 110.075C61.9935 112.697 58.0202 114.252 54 114.305C49.9798 114.252 46.0067 112.697 43.163 110.075C40.2693 107.407 38.5835 103.664 38.5835 99.8904C38.5607 96.0471 40.2939 92.2123 43.2678 89.5195C46.0558 86.995 49.8984 85.5085 54 85.5085ZM18.1096 93.0503C22.1387 92.9675 27.0938 96.1483 31.1024 100.799C35.5732 106.186 37.6067 115.652 33.8758 118.442C30.3457 120.571 21.7668 119.69 15.6741 110.937C11.565 103.593 12.1016 96.1199 14.9866 93.9242C15.9304 93.3496 16.9815 93.0732 18.1096 93.0503ZM89.506 93.0503C89.6337 93.0463 89.7646 93.0463 89.8905 93.0503C91.0187 93.073 92.0697 93.3496 93.0135 93.9242C95.8985 96.1199 96.4351 103.593 92.326 110.937C86.2332 119.69 77.6543 120.571 74.1243 118.442C70.3934 115.652 72.4268 106.186 76.8977 100.799C80.781 96.2936 85.5485 93.166 89.506 93.0503ZM54 118.849C60.2424 118.778 69.5193 121.406 69.405 124.757C69.5046 127.078 61.8926 133.774 54.1282 133.439C54.0852 133.439 54.043 133.438 54 133.439C53.957 133.438 53.9148 133.439 53.8719 133.439C46.1074 133.774 38.4955 127.078 38.5951 124.757C38.4808 121.406 47.7577 118.778 54 118.849Z" fill="#FFF5F0"/>
</svg>
