<svg width="145" height="145" viewBox="0 0 145 145" fill="none" xmlns="http://www.w3.org/2000/svg">
<path d="M54.375 54.375C54.375 44.1042 62.2292 36.25 72.5 36.25C82.7708 36.25 90.625 44.1042 90.625 54.375C90.625 64.6458 82.7708 72.5 72.5 72.5C62.2292 72.5 54.375 64.6458 54.375 54.375ZM72.5 84.5833C44.7083 84.5833 36.25 104.521 36.25 104.521V114.792H108.75V104.521C108.75 104.521 100.292 84.5833 72.5 84.5833Z" fill="#FFF5F0"/>
<path d="M111.771 66.4583C120.113 66.4583 126.875 59.696 126.875 51.3542C126.875 43.0124 120.113 36.25 111.771 36.25C103.429 36.25 96.6666 43.0124 96.6666 51.3542C96.6666 59.696 103.429 66.4583 111.771 66.4583Z" fill="#FFF5F0"/>
<path d="M111.771 78.5416C104.521 78.5416 99.0833 80.3541 94.8541 83.375C108.75 90.0208 114.187 101.5 114.187 102.708V103.312H138.958V95.4583C138.958 94.8541 132.312 78.5416 111.771 78.5416Z" fill="#FFF5F0"/>
<path d="M111.771 66.4583C120.113 66.4583 126.875 59.696 126.875 51.3542C126.875 43.0124 120.113 36.25 111.771 36.25C103.429 36.25 96.6666 43.0124 96.6666 51.3542C96.6666 59.696 103.429 66.4583 111.771 66.4583Z" fill="#FFF5F0"/>
<path d="M111.771 78.5416C104.521 78.5416 99.0833 80.3541 94.8541 83.375C108.75 90.0208 114.187 101.5 114.187 102.708V103.312H138.958V95.4583C138.958 94.8541 132.312 78.5416 111.771 78.5416Z" fill="#FFF5F0"/>
<path d="M33.2292 66.4583C41.571 66.4583 48.3333 59.696 48.3333 51.3542C48.3333 43.0124 41.571 36.25 33.2292 36.25C24.8874 36.25 18.125 43.0124 18.125 51.3542C18.125 59.696 24.8874 66.4583 33.2292 66.4583Z" fill="#FFF5F0"/>
<path d="M33.2291 78.5416C40.4791 78.5416 45.9166 80.3541 50.1458 83.375C36.25 90.0208 30.8125 101.5 30.8125 102.708V103.312H6.04163V95.4583C6.04163 94.8541 12.6875 78.5416 33.2291 78.5416Z" fill="#FFF5F0"/>
</svg>
