<svg width="145" height="145" viewBox="0 0 145 145" fill="none" xmlns="http://www.w3.org/2000/svg">
<path d="M55.3333 91.5417C54.1384 91.5417 52.9703 91.896 51.9768 92.5599C50.9832 93.2237 50.2088 94.1673 49.7516 95.2713C49.2943 96.3753 49.1746 97.59 49.4077 98.762C49.6409 99.934 50.2163 101.011 51.0612 101.855C51.9062 102.7 52.9827 103.276 54.1547 103.509C55.3266 103.742 56.5414 103.622 57.6454 103.165C58.7493 102.708 59.6929 101.933 60.3568 100.94C61.0207 99.9464 61.375 98.7783 61.375 97.5833C61.375 95.981 60.7385 94.4443 59.6054 93.3112C58.4724 92.1782 56.9357 91.5417 55.3333 91.5417ZM13.0417 85.5C11.4393 85.5 9.90259 86.1365 8.76956 87.2696C7.63653 88.4026 7 89.9393 7 91.5417V103.625C7 105.227 7.63653 106.764 8.76956 107.897C9.90259 109.03 11.4393 109.667 13.0417 109.667C14.644 109.667 16.1807 109.03 17.3138 107.897C18.4468 106.764 19.0833 105.227 19.0833 103.625V91.5417C19.0833 89.9393 18.4468 88.4026 17.3138 87.2696C16.1807 86.1365 14.644 85.5 13.0417 85.5ZM133.875 85.5C132.273 85.5 130.736 86.1365 129.603 87.2696C128.47 88.4026 127.833 89.9393 127.833 91.5417V103.625C127.833 105.227 128.47 106.764 129.603 107.897C130.736 109.03 132.273 109.667 133.875 109.667C135.477 109.667 137.014 109.03 138.147 107.897C139.28 106.764 139.917 105.227 139.917 103.625V91.5417C139.917 89.9393 139.28 88.4026 138.147 87.2696C137.014 86.1365 135.477 85.5 133.875 85.5ZM103.667 43.2083H79.5V35.475C81.3262 34.4207 82.8448 32.9068 83.9047 31.0837C84.9646 29.2607 85.5289 27.192 85.5417 25.0833C85.5417 21.8786 84.2686 18.8052 82.0025 16.5391C79.7365 14.2731 76.663 13 73.4583 13C70.2536 13 67.1802 14.2731 64.9141 16.5391C62.6481 18.8052 61.375 21.8786 61.375 25.0833C61.3877 27.192 61.9521 29.2607 63.012 31.0837C64.0719 32.9068 65.5904 34.4207 67.4167 35.475V43.2083H43.25C38.4429 43.2083 33.8328 45.1179 30.4337 48.517C27.0346 51.9161 25.125 56.5263 25.125 61.3333V115.708C25.125 120.515 27.0346 125.126 30.4337 128.525C33.8328 131.924 38.4429 133.833 43.25 133.833H103.667C108.474 133.833 113.084 131.924 116.483 128.525C119.882 125.126 121.792 120.515 121.792 115.708V61.3333C121.792 56.5263 119.882 51.9161 116.483 48.517C113.084 45.1179 108.474 43.2083 103.667 43.2083ZM83.85 55.2917L80.8292 67.375H66.0875L63.0667 55.2917H83.85ZM109.708 115.708C109.708 117.311 109.072 118.847 107.939 119.98C106.806 121.113 105.269 121.75 103.667 121.75H43.25C41.6476 121.75 40.1109 121.113 38.9779 119.98C37.8449 118.847 37.2083 117.311 37.2083 115.708V61.3333C37.2083 59.731 37.8449 58.1943 38.9779 57.0612C40.1109 55.9282 41.6476 55.2917 43.25 55.2917H50.6208L55.3333 74.8667C55.6641 76.2072 56.4441 77.3939 57.5433 78.2294C58.6426 79.0648 59.9949 79.4985 61.375 79.4583H85.5417C86.9218 79.4985 88.274 79.0648 89.3733 78.2294C90.4726 77.3939 91.2525 76.2072 91.5833 74.8667L96.2958 55.2917H103.667C105.269 55.2917 106.806 55.9282 107.939 57.0612C109.072 58.1943 109.708 59.731 109.708 61.3333V115.708ZM91.5833 91.5417C90.3884 91.5417 89.2203 91.896 88.2268 92.5599C87.2332 93.2237 86.4588 94.1673 86.0015 95.2713C85.5443 96.3753 85.4246 97.59 85.6577 98.762C85.8909 99.934 86.4663 101.011 87.3112 101.855C88.1562 102.7 89.2327 103.276 90.4047 103.509C91.5766 103.742 92.7914 103.622 93.8954 103.165C94.9993 102.708 95.9429 101.933 96.6068 100.94C97.2707 99.9464 97.625 98.7783 97.625 97.5833C97.625 95.981 96.9885 94.4443 95.8554 93.3112C94.7224 92.1782 93.1857 91.5417 91.5833 91.5417Z" fill="#FFF5F0"/>
</svg>
