<svg width="21" height="21" viewBox="0 0 21 21" fill="none" xmlns="http://www.w3.org/2000/svg">
<path fill-rule="evenodd" clip-rule="evenodd" d="M9.97456 4.25437C10.5605 4.9039 10.3747 5.63975 9.85664 6.33796C9.7338 6.5035 9.59221 6.6666 9.4212 6.84633C9.33912 6.9326 9.27512 6.99748 9.14124 7.13148C8.8372 7.43583 8.58161 7.69155 8.37447 7.89868C8.27402 7.99912 8.95984 9.36959 10.2908 10.7019C11.6211 12.0335 12.9915 12.7198 13.0924 12.6188L13.8587 11.8521C14.2806 11.4297 14.5041 11.226 14.8112 11.0245C15.4495 10.6057 16.1458 10.4919 16.7331 11.017C18.6504 12.3885 19.7355 13.2302 20.267 13.7825C21.3038 14.8598 21.168 16.518 20.2729 17.464C19.9626 17.7921 19.569 18.1858 19.1042 18.6339C16.2927 21.447 10.359 19.7351 5.81151 15.1831C1.26297 10.6301 -0.448062 4.69583 2.35759 1.88867C2.86128 1.37706 3.02736 1.21107 3.51791 0.727708C4.43124 -0.172224 6.16601 -0.313135 7.22057 0.728598C7.77527 1.27655 8.65961 2.41439 9.97456 4.25437ZM15.2723 13.2662L14.5059 14.033C13.2031 15.3364 10.9846 14.2254 8.87709 12.1158C6.76814 10.0048 5.65833 7.78706 6.96148 6.48402C7.16835 6.27717 7.42369 6.02168 7.7275 5.71758C7.85008 5.59488 7.90615 5.53804 7.97345 5.4673C8.06515 5.37093 8.1405 5.28629 8.20083 5.21139C7.03546 3.58805 6.24326 2.5737 5.8162 2.15182C5.59564 1.93395 5.10178 1.97407 4.92048 2.15271C4.43692 2.62918 4.27798 2.78804 3.77632 3.29755C1.97201 5.10285 3.35327 9.89338 7.22525 13.7692C11.096 17.6437 15.8858 19.0257 17.7039 17.2069C18.1614 16.7655 18.5343 16.3924 18.8213 16.0891C19.0287 15.8699 19.0657 15.4176 18.8272 15.1698C18.4298 14.7569 17.4571 13.9985 15.7774 12.7923C15.655 12.8908 15.5045 13.0337 15.2723 13.2662Z" fill="#EF8FB2"/>
</svg>
